<svg width="91" height="123" viewBox="0 0 91 123" fill="none" xmlns="http://www.w3.org/2000/svg">
<ellipse cx="43.436" cy="28.5" rx="32.5" ry="28.5" fill="#C5B97E"/>
<ellipse cx="36.436" cy="58.5" rx="30.5" ry="57.5" fill="#C5B97E"/>
<path d="M68.5534 36.5437C69.8592 33.176 74.1954 32.2613 76.75 34.8148L77.9499 36.0141C78.2725 36.3365 78.5494 36.7016 78.773 37.0991L81.9273 42.7066C82.5735 43.8555 82.7591 45.2331 82.092 46.3699C81.1521 47.9715 79.3013 50.1357 75.936 50.8934C73.9748 51.3349 71.5263 51.4253 69.2881 51.374C66.0625 51.3001 64.1082 48.009 65.2745 45.0007L68.5534 36.5437Z" fill="#483F0C"/>
<ellipse cx="66.936" cy="29.5" rx="4" ry="3.5" fill="black"/>
<circle cx="64.936" cy="28" r="1" fill="#D9D9D9"/>
<ellipse cx="9.93604" cy="99.5" rx="9" ry="8.5" fill="#C5B97E"/>
<path d="M6.436 96.9999C6.436 96.9999 5.43602 97.9999 5.93602 99.9999C6.43602 102 9.93603 102.5 11.936 101.5C16.8856 99.0251 11.436 91 11.436 91" stroke="#483F0C"/>
<path d="M82.856 116.58C82.856 126.797 57.4147 116.58 44.436 116.58C31.4573 116.58 20.936 113.297 20.936 103.08C20.936 92.8628 29.4573 83.5 42.436 83.5C55.4147 83.5 74.936 106 82.856 116.58Z" fill="#C5B97E"/>
<ellipse cx="82.936" cy="118.5" rx="8" ry="4.5" fill="#C5B97E"/>
</svg>
